<!-- Created with Inkscape (http://www.inkscape.org/) -->
<svg width="200" height="200" version="1.1" viewBox="0 0 52.917 52.917" xmlns="http://www.w3.org/2000/svg">
  <g transform="translate(0 -244.08)">
    <path d="m10.222 269.95s0.84488 0.53105-2.9201 5.97c-2.5444 3.6756-6.2185 7.1056-6.2185 7.1056s1.6873-4.1897 4.372-8.1987c3.7717-5.6323 4.7665-4.8768 4.7665-4.8768z" style="fill:#b2f7ba;paint-order:stroke markers fill"/>
    <path d="m9.7875 266.85s0.4558 0.59816-3.2553 3.7472c-2.508 2.1282-5.7254 3.8024-5.7254 3.8024s2.0403-2.7165 4.7148-5.0594c3.7573-3.2915 4.2659-2.4902 4.2659-2.4902z" style="fill:#b2f7ba;paint-order:stroke markers fill"/>
    <path d="m12.903 268.8s0.77933 6e-3 -0.08602 4.6895c-0.5848 3.1651-2.0566 6.6022-2.0566 6.6022s-0.19749-3.1564 0.37591-6.5748c0.80556-4.8026 1.7667-4.7168 1.7667-4.7168z" style="fill:#b2f7ba;paint-order:stroke markers fill"/>
    <path d="m16.648 260.6s0.26699 0.45904-2.4926 2.3785c-1.8649 1.2972-4.1803 2.2165-4.1803 2.2165s1.5892-1.7503 3.5832-3.1855c2.8015-2.0162 3.0896-1.4096 3.0896-1.4096z" style="fill:#b2f7ba;paint-order:stroke markers fill"/>
    <path d="m18.221 260.08s0.48601 0.19143-1.065 3.2415c-1.0482 2.0612-2.7097 4.0987-2.7097 4.0987s0.55715-2.2431 1.6529-4.4833c1.5394-3.1473 2.1218-2.8568 2.1218-2.8568z" style="fill:#b2f7ba;paint-order:stroke markers fill"/>
    <path d="m21.007 269.67s0.6942 0.0696-0.4223 4.2856c-0.75453 2.8492-2.3197 5.8747-2.3197 5.8747s0.0566-2.9055 0.81964-5.9876c1.072-4.3301 1.9224-4.1726 1.9224-4.1726z" style="fill:#b2f7ba;paint-order:stroke markers fill"/>
    <path d="m22.685 263.35s0.66649 0.33306-1.8407 4.5644c-1.6944 2.8595-4.2524 5.6138-4.2524 5.6138s1.0198-3.1793 2.7998-6.2923c2.5008-4.3734 3.2933-3.8858 3.2933-3.8858z" style="fill:#b2f7ba;paint-order:stroke markers fill"/>
    <path d="m22.69 265.89s0.78165-0.24479 1.2663 4.2796c0.32752 3.0576-0.15409 6.6468-0.15409 6.6468s-1.1079-2.7984-1.5199-6.0822c-0.57885-4.6133 0.40769-4.8443 0.40769-4.8443z" style="fill:#b2f7ba;paint-order:stroke markers fill"/>
    <path d="m24.771 258.61s0.39953 0.33051-1.8085 2.9573c-1.4922 1.7752-3.5441 3.3525-3.5441 3.3525s1.0856-2.0975 2.6672-4.0393c2.2221-2.728 2.6854-2.2705 2.6854-2.2705z" style="fill:#b2f7ba;paint-order:stroke markers fill"/>
    <path d="m25.741 257.75s0.54157 0.0174-0.13102 3.2811c-0.45454 2.2056-1.5297 4.5867-1.5297 4.5867s-0.08932-2.2128 0.36115-4.596c0.63285-3.3481 1.2995-3.2718 1.2995-3.2718z" style="fill:#b2f7ba;paint-order:stroke markers fill"/>
    <path d="m25.741 257.75s0.21271 0.4953-2.6843 2.114c-1.9578 1.0939-4.3161 1.7531-4.3161 1.7531s1.7359-1.5842 3.8344-2.8025c2.9481-1.7116 3.1661-1.0646 3.1661-1.0646z" style="fill:#b2f7ba;paint-order:stroke markers fill"/>
    <path d="m16.648 260.6s0.04586 0.56505-3.0489 1.2301c-2.0915 0.44943-4.4163 0.33265-4.4163 0.33265s2.0358-1.0125 4.2911-1.54c3.1684-0.74107 3.1742-0.0227 3.1742-0.0227z" style="fill:#b2f7ba;paint-order:stroke markers fill"/>
    <path d="m41.164 281.05s-0.77993-0.62254-4.6733 4.7252c-2.6312 3.614-4.6579 8.2136-4.6579 8.2136s3.399-2.9744 6.2987-6.8308c4.0737-5.4179 3.0325-6.108 3.0325-6.108z" style="fill:#b2f7ba;paint-order:stroke markers fill"/>
    <path d="m44.238 280.43s-0.71499-0.23309-2.4643 4.3088c-1.1822 3.0694-1.702 6.659-1.702 6.659s1.8919-2.8219 3.2219-6.1193c1.8686-4.6324 0.94437-4.8485 0.94437-4.8485z" style="fill:#b2f7ba;paint-order:stroke markers fill"/>
    <path d="m41.364 278.14s-0.26273-0.73373-4.3989 1.6274c-2.7952 1.5957-5.5549 4.1184-5.5549 4.1184s3.045-0.85428 6.0832-2.5228c4.2684-2.344 3.8706-3.2231 3.8706-3.2231z" style="fill:#b2f7ba;paint-order:stroke markers fill"/>
    <path d="m47.874 271.9s-0.52141-0.1007-1.4237 3.1374c-0.60975 2.1884-0.71421 4.6773-0.71421 4.6773s1.1285-2.0774 1.8259-4.4332c0.97975-3.3096 0.31202-3.3816 0.31202-3.3816z" style="fill:#b2f7ba;paint-order:stroke markers fill"/>
    <path d="m47.842 270.24s-0.34098-0.39571-2.709 2.0742c-1.6003 1.6692-2.976 3.9096-2.976 3.9096s1.9339-1.2656 3.6876-3.0387c2.4637-2.491 1.9974-2.9451 1.9974-2.9451z" style="fill:#b2f7ba;paint-order:stroke markers fill"/>
    <path d="m37.874 270.77s-0.29457-0.63245-3.9067 1.8117c-2.4411 1.6518-4.7813 4.127-4.7813 4.127s2.7243-1.0114 5.3825-2.7481c3.7345-2.4398 3.3055-3.1907 3.3055-3.1907z" style="fill:#b2f7ba;paint-order:stroke markers fill"/>
    <path d="m43.285 267.11s-0.5342-0.5194-3.7022 3.2427c-2.141 2.5425-3.8977 5.8656-3.8977 5.8656s2.6653-2.011 5.0172-4.718c3.3042-3.803 2.5827-4.3904 2.5827-4.3904z" style="fill:#b2f7ba;paint-order:stroke markers fill"/>
    <path d="m40.89 267.94s-0.02662-0.81865-4.4578 0.21561c-2.9946 0.69895-6.2243 2.3371-6.2243 2.3371s3.0072 0.12322 6.2432-0.57053c4.5462-0.97463 4.4389-1.9822 4.4389-1.9822z" style="fill:#b2f7ba;paint-order:stroke markers fill"/>
    <path d="m47.077 263.57s-0.44376-0.2682-2.1956 2.6824c-1.1839 1.9941-1.9964 4.4513-1.9964 4.4513s1.6223-1.7164 2.934-3.8499c1.8428-2.9973 1.2581-3.2838 1.2581-3.2838z" style="fill:#b2f7ba;paint-order:stroke markers fill"/>
    <path d="m47.565 262.37s-0.19504-0.50553-3.0545 1.2056c-1.9324 1.1564-3.8258 2.9565-3.8258 2.9565s2.1185-0.64528 4.2199-1.8564c2.9522-1.7014 2.6604-2.3057 2.6604-2.3057z" style="fill:#b2f7ba;paint-order:stroke markers fill"/>
    <path d="m47.565 262.37s-0.53775-0.0375-1.1107 3.2312c-0.38719 2.209-0.23198 4.6528-0.23198 4.6528s0.92329-2.1612 1.3815-4.544c0.6438-3.3476-0.03888-3.34-0.03888-3.34z" style="fill:#b2f7ba;paint-order:stroke markers fill"/>
    <path d="m47.874 271.9s-0.54858 0.14301-0.15598 3.284c0.26532 2.1227 1.1421 4.279 1.1421 4.279s0.28466-2.2558 0.03906-4.5589c-0.34505-3.2355-1.0252-3.0041-1.0252-3.0041z" style="fill:#b2f7ba;paint-order:stroke markers fill"/>
    <path d="m30.293 261.17s-0.65346-0.75421-5.456 3.7947c-3.2456 3.0742-6.0764 7.2275-6.0764 7.2275s3.884-2.3053 7.4378-5.569c4.9926-4.585 4.0945-5.4532 4.0945-5.4532z" style="fill:#b2f7ba;paint-order:stroke markers fill"/>
    <path d="m33.427 261.13s-0.66055-0.35946-3.2081 3.7877c-1.7216 2.8027-2.8867 6.2374-2.8867 6.2374s2.3743-2.43 4.2829-5.4299c2.6813-4.2145 1.8119-4.5953 1.8119-4.5953z" style="fill:#b2f7ba;paint-order:stroke markers fill"/>
    <path d="m31.02 258.34s-0.12465-0.76931-4.6218 0.79877c-3.0392 1.0597-6.2123 3.0375-6.2123 3.0375s3.1497-0.28522 6.441-1.3722c4.624-1.5271 4.393-2.464 4.393-2.464z" style="fill:#b2f7ba;paint-order:stroke markers fill"/>
    <path d="m38.557 253.39s-0.49433-0.19401-1.9714 2.8256c-0.99824 2.0406-1.5544 4.4689-1.5544 4.4689s1.4881-1.837 2.603-4.0263c1.5663-3.0757 0.92289-3.2682 0.92289-3.2682z" style="fill:#b2f7ba;paint-order:stroke markers fill"/>
    <path d="m38.827 251.76s-0.26318-0.4512-3.0416 1.546c-1.8777 1.3497-3.6385 3.3019-3.6385 3.3019s2.1322-0.89205 4.1795-2.316c2.8763-2.0004 2.5006-2.5319 2.5006-2.5319z" style="fill:#b2f7ba;paint-order:stroke markers fill"/>
    <path d="m28.93 250.47s-0.17441-0.67553-4.1714 1.0696c-2.7012 1.1794-5.4532 3.1868-5.4532 3.1868s2.863-0.49816 5.7931-1.7214c4.1165-1.7186 3.8315-2.535 3.8315-2.535z" style="fill:#b2f7ba;paint-order:stroke markers fill"/>
    <path d="m34.918 247.85s-0.43063-0.60802-4.231 2.514c-2.5683 2.1099-4.9011 5.0573-4.9011 5.0573s2.9871-1.4918 5.7928-3.7249c3.9418-3.1373 3.3393-3.8464 3.3393-3.8464z" style="fill:#b2f7ba;paint-order:stroke markers fill"/>
    <path d="m32.411 248.23s0.12297-0.8098-4.4225-0.60017c-3.0718 0.14167-6.546 1.164-6.546 1.164s2.9345 0.66905 6.2427 0.57647c4.6476-0.13005 4.7258-1.1402 4.7258-1.1402z" style="fill:#b2f7ba;paint-order:stroke markers fill"/>
    <path d="m39.29 245.06s-0.38749-0.34452-2.6476 2.2375c-1.5274 1.745-2.774 4.0131-2.774 4.0131s1.9078-1.3922 3.5863-3.2509c2.358-2.6114 1.8353-2.9997 1.8353-2.9997z" style="fill:#b2f7ba;paint-order:stroke markers fill"/>
    <path d="m39.989 243.97s-0.09968-0.53261-3.223 0.62889c-2.1107 0.78494-4.3004 2.21-4.3004 2.21s2.2006-0.24851 4.4875-1.0565c3.2128-1.1351 3.0359-1.7824 3.0359-1.7824z" style="fill:#b2f7ba;paint-order:stroke markers fill"/>
    <path d="m39.989 243.97s-0.52191-0.13485-1.6808 2.9748c-0.78317 2.1015-1.0758 4.5326-1.0758 4.5326s1.3016-1.9568 2.1863-4.2162c1.2429-3.1743 0.57029-3.2912 0.57029-3.2912z" style="fill:#b2f7ba;paint-order:stroke markers fill"/>
    <path d="m38.557 253.39s-0.56545 0.0407-0.75168 3.2006c-0.12586 2.1355 0.3434 4.4155 0.3434 4.4155s0.69088-2.1662 0.86899-4.4755c0.25021-3.2442-0.46071-3.1406-0.46071-3.1406z" style="fill:#b2f7ba;paint-order:stroke markers fill"/>
    <path d="m37.257 263s0.99313 0.0976 0.05482 6.6456c-0.63412 4.4252-2.3887 9.1353-2.3887 9.1353s-0.36228-4.5021 0.24842-9.2883c0.85798-6.724 2.0855-6.4926 2.0855-6.4926z" style="fill:#b2f7ba;paint-order:stroke markers fill"/>
    <path d="m35.481 260.41s0.67502 0.33149-1.2382 4.8068c-1.293 3.0244-3.4234 5.9598-3.4234 5.9598s0.61168-3.3419 1.9576-6.6328c1.8909-4.6234 2.704-4.1338 2.704-4.1338z" style="fill:#b2f7ba;paint-order:stroke markers fill"/>
    <path d="m39.142 260.77s0.69995-0.34272 2.0182 4.2339c0.89088 3.0929 1.1098 6.8254 1.1098 6.8254s-1.5869-2.7356-2.6012-6.0501c-1.425-4.6565-0.52682-5.0092-0.52682-5.0092z" style="fill:#b2f7ba;paint-order:stroke markers fill"/>
    <path d="m38.827 251.76s0.44395 0.2914-1.1673 3.2416c-1.0889 1.9937-2.7496 3.8506-2.7496 3.8506s0.63973-2.2759 1.7825-4.4508c1.6055-3.0554 2.1344-2.6414 2.1344-2.6414z" style="fill:#b2f7ba;paint-order:stroke markers fill"/>
    <path d="m40.004 250.6s0.52033-0.0459 0.49538 3.3758c-0.01686 2.3124-0.59302 4.8775-0.59302 4.8775s-0.5037-2.2557-0.52431-4.7495c-0.02895-3.5035 0.62196-3.5038 0.62196-3.5038z" style="fill:#b2f7ba;paint-order:stroke markers fill"/>
    <path d="m46.779 257.93s0.65215-0.24792 1.5369 4.0228c0.59792 2.8861 0.54934 6.2921 0.54934 6.2921s-1.2475-2.6247-1.9418-5.723c-0.9755-4.3528-0.14441-4.5919-0.14441-4.5919z" style="fill:#b2f7ba;paint-order:stroke markers fill"/>
    <path d="m45.458 251.53s0.74507 2.2e-4 0.39245 4.9059c-0.23829 3.3153-1.2963 6.9222-1.2963 6.9222s-0.50811-3.3-0.30636-6.8802c0.28345-5.0299 1.2102-4.9478 1.2102-4.9478z" style="fill:#b2f7ba;paint-order:stroke markers fill"/>
    <path d="m46.595 253.79s0.58994-0.56821 3.0449 3.263c1.6591 2.5892 2.8318 6.0154 2.8318 6.0154s-2.2414-2.0086-4.0771-4.7624c-2.579-3.8686-1.7995-4.516-1.7995-4.516z" style="fill:#b2f7ba;paint-order:stroke markers fill"/>
    <path d="m45.204 246.35s0.50508 0.11724-0.29671 3.4537c-0.54187 2.2549-1.6729 4.5827-1.6729 4.5827s0.03408-2.3615 0.58157-4.8054c0.76917-3.4333 1.3881-3.2311 1.3881-3.2311z" style="fill:#b2f7ba;paint-order:stroke markers fill"/>
    <path d="m45.689 245.15s0.49231-0.22635 1.3487 2.994c0.57876 2.1763 0.6807 4.7869 0.6807 4.7869s-1.0685-1.9398-1.7303-4.2732c-0.92969-3.2781-0.29914-3.5077-0.29914-3.5077z" style="fill:#b2f7ba;paint-order:stroke markers fill"/>
    <path d="m45.689 245.15s0.41157 0.34813-1.4571 3.0906c-1.2629 1.8534-3.0781 3.4968-3.0781 3.4968s0.84522-2.1929 2.1783-4.2204c1.8728-2.8484 2.3569-2.3669 2.3569-2.3669z" style="fill:#b2f7ba;paint-order:stroke markers fill"/>
    <path d="m38.827 251.76s0.29349 0.48503-2.1782 2.4626c-1.6704 1.3365-3.8024 2.2707-3.8024 2.2707s1.369-1.8154 3.1509-3.2949c2.5035-2.0785 2.8296-1.4384 2.8296-1.4384z" style="fill:#b2f7ba;paint-order:stroke markers fill"/>
  </g>
</svg>
