<!-- Created with Inkscape (http://www.inkscape.org/) -->
<svg width="500" height="500" version="1.1" viewBox="0 0 132.29 132.29" xmlns="http://www.w3.org/2000/svg">
  <g transform="translate(0 -164.71)">
    <path d="m131.6 258.59c-1.1948 9.9043-13.551 9.3868-30.682 1.8812-13.062-5.7229-17.077 3.6582-27.772 5.6516-25.09 4.6762-19.05-8.4864-18.478-13.439 0.57136-4.953 14.106-30.443 19.276-21.514 8.7481 15.108 13.352 4.8943 28.987 14.469 12.565 7.6944 18.263 17.52 28.669 12.952" style="fill:#353535;paint-order:normal"/>
    <path transform="matrix(.99778 .066618 -.39678 .91791 0 0)" d="m142.83 289.48a8.1578 4.9579 0 0 1-8.6592 4.6256 8.1578 4.9579 0 0 1-7.6233-5.256 8.1578 4.9579 0 0 1 8.6375-4.6405 8.1578 4.9579 0 0 1 7.6479 5.2428" style="fill:#474747;paint-order:normal;stroke-linecap:round;stroke-width:.5571;stroke:#353535"/>
    <path transform="rotate(9.6416)" d="m73.918 258.38a8.2563 11.745 0 0 1-8.7638 10.958 8.2563 11.745 0 0 1-7.7154-12.452 8.2563 11.745 0 0 1 8.7418-10.994 8.2563 11.745 0 0 1 7.7402 12.421" style="fill:#474747;paint-order:normal;stroke-linecap:round;stroke-width:.86264;stroke:#353535"/>
    <path transform="matrix(.98321 .18248 -.37363 .92758 0 0)" d="m157.79 267.95a5.734 4.7554 0 0 1-6.0864 4.4367 5.734 4.7554 0 0 1-5.3583-5.0414 5.734 4.7554 0 0 1 6.0712-4.451 5.734 4.7554 0 0 1 5.3756 5.0287" style="fill:#474747;paint-order:normal;stroke-linecap:round;stroke-width:.45743;stroke:#353535"/>
    <path transform="matrix(.9874 -.15822 .17704 .9842 0 0)" d="m8.5262 270.2a8.2436 11.105 0 0 1-8.7503 10.361 8.2436 11.105 0 0 1-7.7036-11.773 8.2436 11.105 0 0 1 8.7285-10.394 8.2436 11.105 0 0 1 7.7284 11.743" style="fill:#474747;paint-order:normal;stroke-linecap:round;stroke-width:.83814;stroke:#353535"/>
    <path d="m74.751 233.99a36.404 27.676 0 0 1-38.642 25.821 36.404 27.676 0 0 1-34.019-29.34 36.404 27.676 0 0 1 38.545-25.904 36.404 27.676 0 0 1 34.129 29.267" style="fill:#474747;paint-order:normal;stroke-linecap:round;stroke-width:1.3134;stroke:#353535"/>
    <path d="m131.6 258.59c-2.7915 7.1367-12.38 5.3418-29.511-2.1637-13.062-5.7229-18.353-4.2118-29.049-2.2254-11.997 2.2279-17.666 0.66788-17.094-4.2851 0.57135-4.953 12.829-27.675 17.999-18.747 8.7481 15.108 13.352 4.8943 28.987 14.469 12.565 7.6944 18.263 17.52 28.669 12.952" style="fill:#474747;paint-order:normal"/>
    <path transform="matrix(.99072 .13592 -.20586 .97858 0 0)" d="m86.43 257.02a8.8191 10.258 0 0 1-9.3612 9.5701 8.8191 10.258 0 0 1-8.2413-10.874 8.8191 10.258 0 0 1 9.3378-9.601 8.8191 10.258 0 0 1 8.2679 10.847" style="fill:#474747;paint-order:normal;stroke-linecap:round;stroke-width:.83317;stroke:#353535"/>
    <path transform="matrix(.99241 -.12293 .22664 .97398 0 0)" d="m-4.855 268.63a9.2632 9.7969 0 0 1-9.8326 9.1403 9.2632 9.7969 0 0 1-8.6563-10.386 9.2632 9.7969 0 0 1 9.808-9.1698 9.2632 9.7969 0 0 1 8.6842 10.36" style="fill:#474747;paint-order:normal;stroke-linecap:round;stroke-width:.8345;stroke:#353535"/>
    <path d="m57.619 249.52a21.07 22.41 0 0 1-22.365 20.908 21.07 22.41 0 0 1-19.689-23.758 21.07 22.41 0 0 1 22.309-20.975 21.07 22.41 0 0 1 19.753 23.698" style="fill:#717171;paint-order:normal;stroke-linecap:round;stroke-width:.95228;stroke:#353535"/>
    <path transform="matrix(.63909 .76913 -.54327 .83956 0 0)" d="m157.58 151.03a12.239 9.0751 0 0 1-12.991 8.4669 12.239 9.0751 0 0 1-11.437-9.6209 12.239 9.0751 0 0 1 12.958-8.4942 12.239 9.0751 0 0 1 11.474 9.5968" style="fill:#474747;paint-order:normal;stroke-linecap:round;stroke-width:1.8891;stroke:#353535"/>
    <path transform="matrix(.68003 .73319 -.58553 .81065 0 0)" d="m173.14 156.31a11.502 8.4201 0 0 1-12.209 7.8558 11.502 8.4201 0 0 1-10.748-8.9265 11.502 8.4201 0 0 1 12.178-7.8812 11.502 8.4201 0 0 1 10.783 8.9041" style="fill:#474747;paint-order:normal;stroke-linecap:round;stroke-width:1.764;stroke:#353535"/>
    <path d="m60.849 222.36c-2.1085 11.064-12.179 16.166-24.627 15.418-12.448-0.74807-21.271-6.3864-20.496-18.13 0.77536-11.743 11.487-20.675 23.937-19.961 12.45 0.71474 21.934 10.806 21.194 22.551" style="fill:#717171;paint-order:normal"/>
    <path d="m49.534 223.69a16.118 12.607 0 0 1-17.108 11.762 16.118 12.607 0 0 1-15.062-13.365 16.118 12.607 0 0 1 17.066-11.8 16.118 12.607 0 0 1 15.11 13.332" style="fill:none;paint-order:normal;stroke-linecap:round;stroke-width:1.4977;stroke:#353535"/>
    <path d="m53.3 218.65a18.748 15.184 0 0 1-19.9 14.166 18.748 15.184 0 0 1-17.519-16.097 18.748 15.184 0 0 1 19.85-14.212 18.748 15.184 0 0 1 17.576 16.056" style="fill:none;paint-order:normal;stroke-linecap:round;stroke-width:1.7727;stroke:#353535"/>
    <rect x="24.616" y="226.92" width="12.494" height="1.4366" style="fill:#353535;paint-order:normal"/>
    <path d="m58.624 217.5a21.409 16.316 0 0 1-22.725 15.223 21.409 16.316 0 0 1-20.007-17.297 21.409 16.316 0 0 1 22.668-15.272 21.409 16.316 0 0 1 20.071 17.254" style="fill:none;paint-order:normal;stroke-linecap:round;stroke-width:1.9637;stroke:#353535"/>
    <path d="m61.265 219.81a22.731 18.488 0 0 1-24.128 17.249 22.731 18.488 0 0 1-21.242-19.6 22.731 18.488 0 0 1 24.068-17.305 22.731 18.488 0 0 1 21.31 19.551" style="fill:none;paint-order:normal;stroke-linecap:round;stroke-width:2.1539;stroke:#353535"/>
    <path d="m25.217 228.08h12.143s13.417-3.7262 11.78 5.807c-0.732 4.2613-7.7966 3.7483-11.78 5.4307-2.0595 0.86991-4.0252 2.4866-6.2595 2.4086-2.3986-0.0838-5.107-1.3567-6.5229-3.0484-2.3182-2.7696-4.5004-2.8234-4.8548-4.9791-0.39836-2.4233 5.4946-5.6189 5.4946-5.6189z" style="fill:#a6a6a6;paint-order:normal;stroke-linecap:round;stroke-width:1.5803;stroke:#353535"/>
    <path transform="matrix(.97976 -.20016 .21942 .97563 0 0)" d="m-25.781 227.33a3.8507 4.5803 0 0 1-4.0874 4.2733 3.8507 4.5803 0 0 1-3.5984-4.8558 3.8507 4.5803 0 0 1 4.0771-4.2871 3.8507 4.5803 0 0 1 3.61 4.8436" style="fill:#474747;paint-order:stroke markers fill;stroke-linecap:round;stroke-width:2.0915;stroke:#353535"/>
    <path d="m49.218 227.89a5.8439 5.9397 0 0 1-6.2031 5.5416 5.8439 5.9397 0 0 1-5.461-6.2969 5.8439 5.9397 0 0 1 6.1876-5.5595 5.8439 5.9397 0 0 1 5.4786 6.2811" style="fill:#f00101;paint-order:normal;stroke-linecap:round;stroke-width:1.4223;stroke:#353535"/>
    <path d="m45.047 227.7a1.6366 1.6366 0 0 1-1.7372 1.5269 1.6366 1.6366 0 0 1-1.5294-1.735 1.6366 1.6366 0 0 1 1.7329-1.5318 1.6366 1.6366 0 0 1 1.5343 1.7307" style="fill:#ff7b36;paint-order:normal"/>
    <path transform="matrix(.84925 -.528 .38813 .9216 0 0)" d="m-22.3 238.4a11.7 9.357 0 0 1-12.419 8.7299 11.7 9.357 0 0 1-10.934-9.9198 11.7 9.357 0 0 1 12.388-8.7581 11.7 9.357 0 0 1 10.969 9.8949" style="fill:#474747;paint-order:normal;stroke-linecap:round;stroke-width:1.8755;stroke:#353535"/>
    <path transform="matrix(.84925 -.528 .38813 .9216 0 0)" d="m-34.046 242.29a11.7 9.357 0 0 1-12.419 8.7299 11.7 9.357 0 0 1-10.934-9.9198 11.7 9.357 0 0 1 12.388-8.7581 11.7 9.357 0 0 1 10.969 9.8949" style="fill:#474747;paint-order:normal;stroke-linecap:round;stroke-width:1.8755;stroke:#353535"/>
    <path d="m116.76 263.36 1.7076-6.4749-7.8039-5.6599-4.2396 6.8201-8.9021-3.3074 4.9636-9.1619-10.468-4.2685-5.961 10.769-12.083 1.8279 6.3926-14.459 11.532 1.4119 10.688 4.6666 8.129 5.5699 7.8279 6.0215 6.172 3.0108 6.8813-1.5397-2.0642 3.6472-4.3656 1.0537-0.45161-3.1613-6.2475-3.2412-1.2794 5.6498 7.8279 0.90323" style="fill:none;stroke-width:.84301px;stroke:#353535"/>
    <path d="m13.778 277.3s0.17954-1.537-0.14806-2.1813c-0.34758-0.68358-1.7504-1.4372-1.7504-1.4372s-1.4383 0.54799-2 1.0627c-1.7009 1.559-3.8318 5.8453-3.8318 5.8453s2.7071-2.1962 4.2943-2.7956c1.0868-0.41056 3.4361-0.49388 3.4361-0.49388z" style="fill:#c5c5c5;stroke-width:.78964px;stroke:#353535"/>
    <path d="m15.688 279.48s0.50365-1.5402 0.28437-2.2709c-0.23262-0.77526-1.5784-1.8452-1.5784-1.8452s-1.6477 0.25898-2.3522 0.66894c-2.1334 1.2417-5.2795 5.1929-5.2795 5.1929s3.3376-1.6835 5.1548-1.9639c1.2444-0.19228 3.771 0.2183 3.771 0.2183z" style="fill:#c5c5c5;stroke-width:.84301px;stroke:#353535"/>
    <path d="m49.545 279.18s0.84352-1.035 1.5431-1.2539c0.74225-0.23223 2.4362 0.0554 2.4362 0.0554s0.87948 1.102 1.0278 1.716c0.44871 1.8599-0.50369 5.6156-0.50369 5.6156s-0.8992-2.7858-1.8732-3.9987c-0.66685-0.83054-2.6303-2.1345-2.6303-2.1345z" style="fill:#c5c5c5;stroke-width:.73695px;stroke:#353535"/>
    <path d="m45.586 279.56s0.56728-1.2097 1.2299-1.5393c0.70302-0.34965 2.5533-0.28578 2.5533-0.28578s1.2469 1.0371 1.5859 1.6633c1.0261 1.8966 1.1631 5.989 1.1631 5.989s-1.7735-2.8088-3.1521-3.9494c-0.94395-0.78111-3.3802-1.878-3.3802-1.878z" style="fill:#c5c5c5;stroke-width:.78676px;stroke:#353535"/>
    <path d="m74.804 232.6 5.5648 6.8409-6.3926 14.459-13.989 1.7056" style="fill:none;stroke-width:.84301px;stroke:#353535"/>
    <path transform="matrix(-.36349 -.9316 -.83727 .54679 0 0)" d="m-216.68 72.229a7.4826 7.2196 0 0 1-7.9425 6.7357 7.4826 7.2196 0 0 1-6.9924-7.6537 7.4826 7.2196 0 0 1 7.9226-6.7574 7.4826 7.2196 0 0 1 7.0149 7.6345" style="fill:#474747;paint-order:normal;stroke-linecap:round;stroke-width:1.3175;stroke:#353535"/>
    <path d="m21.43 252.71s-0.63847 0.84916-0.65702 1.349c-0.01969 0.53028 0.5889 1.4791 0.5889 1.4791s1.0773 0.1879 1.6012 0.0825c1.5867-0.3189 4.3751-2.105 4.3751-2.105s-2.4273 0.33834-3.6143 0.12758c-0.81284-0.14408-2.2938-0.93341-2.2938-0.93341z" style="fill:#c5c5c5;stroke-width:.5527px;stroke:#353535"/>
    <path d="m23.187 248.77s-1.3975 0.82032-1.7172 1.513c-0.33924 0.7349-0.03971 2.4279-0.03971 2.4279s1.406 0.89733 2.2053 1.0569c2.4207 0.48288 7.3949-0.39339 7.3949-0.39339s-3.6155-0.9495-5.1627-1.9431c-1.0595-0.68031-2.6806-2.6613-2.6806-2.6613z" style="fill:#c5c5c5;stroke-width:.84301px;stroke:#353535"/>
    <path d="m24.891 248.18s0.23269-1.0366 0.60127-1.3748c0.39096-0.35877 1.508-0.51043 1.508-0.51043s0.84147 0.6984 1.1008 1.1657c0.78573 1.4148 1.2333 4.6958 1.2333 4.6958s-1.3159-2.0676-2.2457-2.8348c-0.63658-0.52554-2.1977-1.1415-2.1977-1.1415z" style="fill:#c5c5c5;stroke-width:.5527px;stroke:#353535"/>
    <path transform="matrix(.36349 -.9316 .83727 .54679 0 0)" d="m-177.08 142.13a7.4826 7.2196 0 0 1-7.9425 6.7357 7.4826 7.2196 0 0 1-6.9924-7.6537 7.4826 7.2196 0 0 1 7.9226-6.7574 7.4826 7.2196 0 0 1 7.0149 7.6345" style="fill:#474747;paint-order:normal;stroke-linecap:round;stroke-width:1.3175;stroke:#353535"/>
    <path d="m50.687 253.51s0.63847 0.84915 0.65702 1.349c0.01959 0.53028-0.5889 1.4791-0.5889 1.4791s-1.0773 0.1879-1.6012 0.0825c-1.5867-0.31891-4.3751-2.105-4.3751-2.105s2.4273 0.33833 3.6143 0.12784c0.81284-0.14408 2.2938-0.93344 2.2938-0.93344z" style="fill:#c5c5c5;stroke-width:.5527px;stroke:#353535"/>
    <path d="m48.93 249.57s1.3975 0.82032 1.7172 1.513c0.33924 0.7349 0.03972 2.4279 0.03972 2.4279s-1.406 0.89732-2.2053 1.0569c-2.4207 0.48288-7.3949-0.39339-7.3949-0.39339s3.6155-0.9495 5.1627-1.9431c1.0595-0.6803 2.6806-2.6613 2.6806-2.6613z" style="fill:#c5c5c5;stroke-width:.84301px;stroke:#353535"/>
    <path d="m47.226 248.99s-0.23269-1.0366-0.60127-1.3748c-0.39096-0.35878-1.508-0.51043-1.508-0.51043s-0.84147 0.69843-1.1008 1.1657c-0.78573 1.4148-1.2333 4.6958-1.2333 4.6958s1.3159-2.0676 2.2457-2.8349c0.63658-0.52553 2.1977-1.1415 2.1977-1.1415z" style="fill:#c5c5c5;stroke-width:.5527px;stroke:#353535"/>
  </g>
</svg>
